#N canvas 730 250 450 310 10;
#X obj 176 25 bng 15 250 50 0 empty empty empty 17 7 0 10 -262144 -1
-1;
#X obj 176 45 openpanel;
#X obj 177 80 t status s;
#X msg 177 106 1;
#X msg 240 103 open \$1;
#X obj 205 156 readsf~;
#X obj 210 203 sigtoint;
#X floatatom 211 243 20 0 0 0 - - -, f 20;
#X obj 131 258 dac~;
#X obj 135 215 *~ 0.2;
#X msg 146 126 0;
#X obj 114 87 bng 15 250 50 0 empty empty empty 17 7 0 10 -262144 -1
-1;
#X connect 0 0 1 0;
#X connect 1 0 2 0;
#X connect 2 0 3 0;
#X connect 2 1 4 0;
#X connect 3 0 5 0;
#X connect 4 0 5 0;
#X connect 5 0 6 0;
#X connect 5 0 9 0;
#X connect 6 0 7 0;
#X connect 9 0 8 0;
#X connect 9 0 8 1;
#X connect 10 0 5 0;
#X connect 11 0 10 0;
