#N canvas 641 172 450 287 10;
#X obj 203 192 through~;
#X obj 176 25 bng 15 250 50 0 empty empty empty 17 7 0 10 -262144 -1
-1;
#X obj 176 45 openpanel;
#X obj 177 80 t status s;
#X msg 177 106 1;
#X msg 240 103 open \$1;
#X obj 206 156 readsf~;
#X obj 203 214 *~ 0.02;
#X obj 205 262 dac~;
#X connect 0 0 7 0;
#X connect 1 0 2 0;
#X connect 2 0 3 0;
#X connect 3 0 4 0;
#X connect 3 1 5 0;
#X connect 4 0 6 0;
#X connect 5 0 6 0;
#X connect 6 0 0 0;
#X connect 7 0 8 0;
#X connect 7 0 8 1;
